control3min_grf.mot
version=1
nRows=27
nColumns 19
inDegrees=yes
endheader
time	1_ground_force_vx	1_ground_force_vy	1_ground_force_vz	1_ground_force_px	1_ground_force_py	1_ground_force_pz	1_ground_torque_x	1_ground_torque_y	1_ground_torque_z	2_ground_force_vx	2_ground_force_vy	2_ground_force_vz	2_ground_force_px	2_ground_force_py	2_ground_force_pz	2_ground_torque_x	2_ground_torque_y	2_ground_torque_z
            2.502500	            0.048297	            0.896815	            1.058437	           -0.233013	            0.005581	           -0.255695	           -0.158653	            0.047051	           -0.185463	            0.049741	           -0.917058	           -0.988795	           -0.232311	            0.006130	           -0.833667	           -0.356708	           -0.067256	           -0.056635
            2.503000	            0.048117	            1.257543	            1.014127	           -0.233013	            0.005581	           -0.255695	           -0.100742	           -0.017401	           -0.242290	            0.190353	           -0.917052	           -0.848071	           -0.232311	            0.006130	           -0.833667	           -0.262653	           -0.104660	           -0.075660
            2.503500	            0.185973	            0.716380	            1.103179	           -0.233013	            0.005581	           -0.255695	           -0.235643	           -0.045172	           -0.217393	            0.472740	           -1.283999	           -0.943361	           -0.232311	            0.006130	           -0.833667	           -0.375399	           -0.095615	           -0.075578
            2.504000	            0.231929	            0.716192	            1.148921	           -0.233013	            0.005581	           -0.255695	           -0.162356	           -0.091594	           -0.159425	            0.283408	           -0.732733	           -0.800526	           -0.232311	            0.006130	           -0.833667	           -0.187450	           -0.132411	           -0.170044
            2.504500	           -0.043586	            1.978392	            1.063302	           -0.233013	            0.005581	           -0.255695	           -0.159431	           -0.063751	           -0.227480	            0.005050	           -1.471011	           -0.615322	           -0.232311	            0.006130	           -0.833667	           -0.375236	           -0.151995	           -0.170032
            2.505000	           -0.043308	            1.076867	            1.105293	           -0.233013	            0.005581	           -0.255695	           -0.141992	           -0.045340	           -0.208614	            0.517637	           -0.731720	           -0.847553	           -0.232311	            0.006130	           -0.833667	           -0.243696	           -0.161040	           -0.151271
            2.505500	           -0.042901	            0.715745	            1.241315	           -0.233013	            0.005581	           -0.255695	           -0.147766	           -0.045094	           -0.264980	            0.332190	           -1.284507	           -0.943301	           -0.232311	            0.006130	           -0.833667	           -0.262560	           -0.123767	           -0.019177
            2.506000	            0.277724	            0.355866	            1.101405	           -0.233013	            0.005581	           -0.255695	           -0.179190	            0.019746	           -0.250928	            0.051173	           -1.286191	           -0.755469	           -0.232311	            0.006130	           -0.833667	           -0.225090	           -0.104457	           -0.094526
            2.506500	            0.094254	            0.896628	            1.104179	           -0.233013	            0.005581	           -0.255695	           -0.123139	           -0.026705	           -0.221509	            0.146182	           -1.653982	           -0.803751	           -0.232311	            0.006130	           -0.833667	           -0.243918	           -0.095005	           -0.113335
            2.507000	            0.186038	            0.355848	            1.101633	           -0.233013	            0.005581	           -0.255695	           -0.197817	           -0.063732	           -0.198755	            0.192367	           -1.469665	           -0.803114	           -0.232311	            0.006130	           -0.833667	           -0.300375	           -0.076035	           -0.188644
            2.507500	           -0.181161	            0.356564	            0.919119	           -0.233013	            0.005581	           -0.255695	           -0.115080	           -0.100623	           -0.271151	            0.517678	           -0.732055	           -0.753697	           -0.232311	            0.006130	           -0.833667	           -0.300342	           -0.076303	           -0.113243
            2.508000	            0.048881	            1.436433	            1.335891	           -0.233013	            0.005581	           -0.255695	           -0.170509	           -0.156619	           -0.111133	            0.189832	           -0.734076	           -0.518917	           -0.232311	            0.006130	           -0.833667	           -0.281267	           -0.151992	           -0.075821
            2.508500	           -0.180738	            0.536043	            1.103316	           -0.233013	            0.005581	           -0.255695	           -0.198063	           -0.072983	           -0.252035	            0.143462	           -0.916887	           -0.941907	           -0.232311	            0.006130	           -0.833667	           -0.337657	           -0.151926	           -0.151197
            2.509000	            0.186314	            0.715790	            1.240746	           -0.233013	            0.005581	           -0.255695	           -0.241702	           -0.007872	           -0.292410	            0.287355	           -1.837288	           -0.898324	           -0.232311	            0.006130	           -0.833667	           -0.281478	           -0.113576	           -0.245338
            2.509500	           -0.225784	            0.534658	            1.424421	           -0.233013	            0.005581	           -0.255695	           -0.136780	            0.038101	           -0.291262	            0.330943	           -0.916880	           -0.754274	           -0.232311	            0.006130	           -0.833667	           -0.319205	           -0.048215	           -0.056583
            2.510000	           -0.226827	            1.257294	            1.060666	           -0.233013	            0.005581	           -0.255695	           -0.140270	           -0.017534	           -0.253921	            0.096050	           -0.733744	           -0.706590	           -0.232311	            0.006130	           -0.833667	           -0.318940	           -0.123769	           -0.075703
            2.510500	            0.369036	            0.536739	            0.964383	           -0.233013	            0.005581	           -0.255695	           -0.135648	           -0.008341	           -0.153263	            0.332978	           -1.469659	           -0.662389	           -0.232311	            0.006130	           -0.833667	           -0.356698	           -0.076507	           -0.113219
            2.511000	            0.048444	            0.716353	            1.103520	           -0.233013	            0.005581	           -0.255695	           -0.216830	           -0.091529	           -0.204704	            0.193573	           -1.836957	           -1.085997	           -0.232311	            0.006130	           -0.833667	           -0.281302	           -0.142539	           -0.075787
            2.511500	            0.277074	            0.176780	            0.825497	           -0.233013	            0.005581	           -0.255695	           -0.148422	           -0.026716	           -0.194803	            0.283326	           -0.732064	           -0.988238	           -0.232311	            0.006130	           -0.833667	           -0.281378	           -0.123566	           -0.094570
            2.512000	            0.093897	            0.356617	            0.918437	           -0.233013	            0.005581	           -0.255695	           -0.152365	           -0.082420	           -0.165261	            0.378417	           -1.100524	           -0.848808	           -0.232311	            0.006130	           -0.833667	           -0.224996	           -0.132748	           -0.113478
            2.512500	           -0.043240	           -0.545131	            1.006625	           -0.233013	            0.005581	           -0.255695	           -0.136902	           -0.027097	           -0.152097	            0.379767	           -1.468988	           -0.803194	           -0.232311	            0.006130	           -0.833667	           -0.262473	           -0.161175	           -0.132413
            2.513000	            0.003170	            0.715361	            1.332913	           -0.233013	            0.005581	           -0.255695	           -0.170157	           -0.082531	           -0.150342	            0.049118	           -0.733244	           -0.894282	           -0.232311	            0.006130	           -0.833667	           -0.300335	           -0.067187	           -0.018958
            2.513500	            0.048036	            1.077474	            0.967498	           -0.233013	            0.005581	           -0.255695	           -0.229925	           -0.073130	           -0.185807	            0.096009	           -0.733410	           -0.800446	           -0.232311	            0.006130	           -0.833667	           -0.187665	           -0.057260	           -0.037823
            2.514000	           -0.088921	           -0.185002	            1.099997	           -0.233013	            0.005581	           -0.255695	           -0.141170	           -0.128551	           -0.210883	            0.283408	           -0.732733	           -0.800526	           -0.232311	            0.006130	           -0.833667	           -0.375687	           -0.029042	           -0.188443
            2.514500	           -0.043290	            0.356001	            1.056346	           -0.233013	            0.005581	           -0.255695	           -0.195894	           -0.017622	           -0.208336	            0.425369	           -1.101192	           -0.614187	           -0.232311	            0.006130	           -0.833667	           -0.262719	           -0.104123	           -0.226462
            2.515000	           -0.272083	            0.535436	            1.241111	           -0.233013	            0.005581	           -0.255695	           -0.222286	           -0.101480	           -0.086823	            0.050426	           -1.101373	           -0.942524	           -0.232311	            0.006130	           -0.833667	           -0.393969	           -0.170833	           -0.207792
            2.515500	            0.002909	            0.896020	            1.241974	           -0.233013	            0.005581	           -0.255695	           -0.147695	           -0.017665	           -0.187722	            0.521645	           -1.836777	           -0.804568	           -0.232311	            0.006130	           -0.833667	           -0.281396	           -0.114248	           -0.056836
